<svg xmlns="http://www.w3.org/2000/svg" xmlns:xlink="http://www.w3.org/1999/xlink" id="Layer_1" x="0px" y="0px" viewBox="0 0 100 100" style="enable-background:new 0 0 100 100;" xml:space="preserve">
<style type="text/css">
	.st0{fill:#FFF1EF;}
	.st1{fill:#FFFFFF;}
	.st2{fill:#418FDE;}
	.st3{fill:#FF725F;}
</style>
<circle class="st0" cx="50" cy="50" r="50"></circle>
<g>
	<rect x="43.7" y="37.2" class="st1" width="16.3" height="4.7"></rect>
	<path class="st2" d="M73,35H32c-0.6,0-1,0.5-1,1v6h16c1.2-1.8,3.2-3,5.5-3s4.3,1.2,5.5,3h10c1.7,0,3,1.3,3,3v11h2c0.6,0,1-0.5,1-1   V36C74,35.5,73.6,35,73,35z"></path>
	<path class="st2" d="M68,44h-9.2H46.2H31h-4c-0.6,0-1,0.5-1,1v19c0,0.5,0.4,1,1,1h41c0.6,0,1-0.5,1-1v-8V45C69,44.5,68.6,44,68,44z   "></path>
	<path class="st3" d="M32,58c-1.7,0-3-1.3-3-3c0-1.3,0.8-2.4,2-2.8c0.3-0.1,0.7-0.2,1-0.2c1.7,0,3,1.3,3,3c0,0.3-0.1,0.7-0.2,1   C34.4,57.2,33.3,58,32,58z"></path>
	<path class="st1" d="M47.5,61c-3.1,0-5.7-2.1-6.3-5c-0.1-0.5-0.2-1-0.2-1.5c0-3.3,2.4-6,5.5-6.4c0.3-0.1,0.6-0.1,1-0.1   c2.7,0,5,1.6,6,3.9c0.3,0.8,0.5,1.7,0.5,2.6c0,0.5-0.1,1-0.2,1.5C53.2,58.9,50.6,61,47.5,61z"></path>
	<path class="st3" d="M63,57.5c-1.1,0-2.1-0.6-2.6-1.5c-0.2-0.4-0.4-1-0.4-1.5c0-1.7,1.3-3,3-3s3,1.3,3,3c0,0.5-0.2,1.1-0.4,1.5   C65.1,56.9,64.1,57.5,63,57.5z"></path>
</g>
</svg>