<svg xmlns="http://www.w3.org/2000/svg" xmlns:xlink="http://www.w3.org/1999/xlink" id="Layer_1" x="0px" y="0px" viewBox="0 0 100 100" style="enable-background:new 0 0 100 100;" xml:space="preserve">
<style type="text/css">
	.st0{fill:#FFF1EF;}
	.st1{fill:#FF725F;}
	.st2{fill:#418FDE;}
</style>
<circle class="st0" cx="50" cy="50" r="50"></circle>
<g>
	<path class="st1" d="M64.1,58.1l-0.2-0.2c-2,3.5-5.2,6.1-9.1,7.4c-0.6,0.2-1.2,0.3-1.8,0.5h0c-0.8,0.1-1.5,0.2-2.3,0.3l0.5-0.4   c0.9-0.7,1-2,0.3-2.8c-0.4-0.5-1-0.8-1.6-0.8c-0.4,0-0.9,0.1-1.2,0.4l-3.5,2.8l-1.5,1.2c-0.5,0.4-0.8,1-0.8,1.6   c0,0.3,0.1,0.5,0.2,0.8c0.1,0.3,0.3,0.5,0.6,0.8l5,4c0.4,0.3,0.8,0.4,1.2,0.4c0.6,0,1.2-0.3,1.6-0.8c0.7-0.9,0.5-2.1-0.3-2.8   L50.7,70c0.7,0,1.4-0.1,2.1-0.2c0.5-0.1,1.1-0.2,1.6-0.3c5.6-1.2,10.2-4.8,13-9.6C66.1,59.8,64.9,59.1,64.1,58.1z"></path>
	<path class="st1" d="M35.9,41.9l0.2,0.2c2-3.5,5.2-6.1,9.1-7.4c0.6-0.2,1.2-0.3,1.8-0.5h0c0.8-0.2,1.5-0.2,2.3-0.3l-0.5,0.4   c-0.9,0.7-1,2-0.3,2.8c0.4,0.5,1,0.8,1.6,0.8c0.4,0,0.9-0.1,1.2-0.4l3.5-2.8l1.5-1.2c0.5-0.4,0.8-1,0.8-1.6c0-0.3-0.1-0.5-0.2-0.8   c-0.1-0.3-0.3-0.6-0.6-0.8l-5-4C50.9,26.1,50.4,26,50,26c-0.6,0-1.2,0.3-1.6,0.8c-0.7,0.9-0.5,2.1,0.3,2.8l0.6,0.5   c-0.7,0-1.4,0.1-2.1,0.2c-0.5,0.1-1.1,0.2-1.6,0.3c-5.6,1.2-10.3,4.8-13,9.6C33.9,40.2,35.1,40.9,35.9,41.9z"></path>
	<path class="st2" d="M34.8,54.8c-0.2-0.6-0.3-1.2-0.4-1.8c-0.2-0.8-0.2-1.5-0.3-2.3l0.4,0.5c0.4,0.5,1,0.8,1.6,0.8   c0.4,0,0.9-0.1,1.2-0.4c0.9-0.7,1-2,0.3-2.8l-2.8-3.5l-1.2-1.5c-0.4-0.5-1-0.7-1.6-0.7c-0.3,0-0.6,0-0.8,0.2   c-0.3,0.1-0.5,0.3-0.8,0.5l-4,5c-0.7,0.9-0.5,2.1,0.3,2.8c0.4,0.3,0.8,0.4,1.2,0.4c0.6,0,1.2-0.3,1.6-0.8l0.5-0.6   c0,0.7,0.1,1.4,0.2,2c0.1,0.5,0.2,1.1,0.3,1.6c1.2,5.6,4.8,10.2,9.6,13c0.2-1.3,0.8-2.4,1.8-3.2l0.2-0.2C38.6,62,36,58.7,34.8,54.8   z"></path>
	<path class="st2" d="M73.2,48.4C72.9,48.1,72.4,48,72,48c-0.6,0-1.2,0.3-1.6,0.8L70,49.3c0-0.7-0.1-1.4-0.2-2.1   c-0.1-0.5-0.2-1.1-0.3-1.6c-1.2-5.5-4.8-10.2-9.6-13c-0.2,1.3-0.8,2.4-1.8,3.2l-0.2,0.2c3.5,2,6.1,5.2,7.4,9.1   c0.2,0.6,0.3,1.2,0.4,1.8c0.2,0.8,0.2,1.5,0.3,2.3l-0.4-0.5c-0.4-0.5-1-0.8-1.6-0.8c-0.4,0-0.9,0.1-1.2,0.4c-0.9,0.7-1,2-0.3,2.8   l2.8,3.5l1.2,1.5c0.4,0.5,1,0.8,1.6,0.8c0.3,0,0.6-0.1,0.8-0.2c0.3-0.1,0.6-0.3,0.8-0.6l4-5C74.2,50.4,74.1,49.1,73.2,48.4z"></path>
</g>
</svg>