<svg xmlns="http://www.w3.org/2000/svg" xmlns:xlink="http://www.w3.org/1999/xlink" id="Layer_1" x="0px" y="0px" viewBox="0 0 100 100" style="enable-background:new 0 0 100 100;" xml:space="preserve">
<style type="text/css">
	.st0{fill:#FFF1EF;}
	.st1{fill:#FF725F;}
	.st2{fill:#418FDE;}
</style>
<circle class="st0" cx="50" cy="50" r="50"></circle>
<g>
	<circle class="st1" cx="50" cy="50" r="6"></circle>
	<path class="st2" d="M58,44h9c1.1,0,2-0.9,2-2s-0.9-2-2-2h-4.2l10.6-10.6c0.8-0.8,0.8-2,0-2.8c-0.8-0.8-2-0.8-2.8,0L60,37.2V33   c0-1.1-0.9-2-2-2s-2,0.9-2,2v9C56,43.1,56.9,44,58,44z"></path>
	<path class="st2" d="M37.2,40H33c-1.1,0-2,0.9-2,2s0.9,2,2,2h9c1.1,0,2-0.9,2-2v-9c0-1.1-0.9-2-2-2s-2,0.9-2,2v4.2L29.4,26.6   c-0.8-0.8-2-0.8-2.8,0c-0.8,0.8-0.8,2,0,2.8L37.2,40z"></path>
	<path class="st2" d="M62.8,60H67c1.1,0,2-0.9,2-2s-0.9-2-2-2h-9c-1.1,0-2,0.9-2,2v9c0,1.1,0.9,2,2,2s2-0.9,2-2v-4.2l10.6,10.6   C71,73.8,71.5,74,72,74s1-0.2,1.4-0.6c0.8-0.8,0.8-2,0-2.8L62.8,60z"></path>
	<path class="st2" d="M42,56h-9c-1.1,0-2,0.9-2,2s0.9,2,2,2h4.2L26.6,70.6c-0.8,0.8-0.8,2,0,2.8C27,73.8,27.5,74,28,74   s1-0.2,1.4-0.6L40,62.8V67c0,1.1,0.9,2,2,2s2-0.9,2-2v-9C44,56.9,43.1,56,42,56z"></path>
</g>
<g>
</g>
<g>
</g>
<g>
</g>
<g>
</g>
<g>
</g>
<g>
</g>
<g>
</g>
<g>
</g>
<g>
</g>
<g>
</g>
<g>
</g>
<g>
</g>
<g>
</g>
<g>
</g>
<g>
</g>
</svg>