<svg xmlns="http://www.w3.org/2000/svg" xmlns:xlink="http://www.w3.org/1999/xlink" id="Layer_1" x="0px" y="0px" viewBox="0 0 100 100" style="enable-background:new 0 0 100 100;" xml:space="preserve">
<style type="text/css">
	.st0{fill:#FFF1EF;}
	.st1{fill:#418FDE;}
	.st2{fill:#FFFFFF;}
	.st3{fill:#A0C7EE;}
	.st4{fill:#FF725F;}
</style>
<circle class="st0" cx="50" cy="50" r="50"></circle>
<g>
	<circle class="st1" cx="54.2" cy="45.7" r="20"></circle>
	<path class="st2" d="M65.2,55.9c-1.6,1.8-3.7,3.1-6,4c-0.7,0.2-1.3,0.4-2,0.6c-1,0.2-2,0.3-3,0.3s-2-0.1-3-0.3   c-0.7-0.1-1.3-0.3-2-0.6c-2.3-0.8-4.4-2.2-6-4c-2.5-2.7-4-6.2-4-10.2c0-8.3,6.7-15,15-15s15,6.7,15,15   C69.2,49.6,67.7,53.2,65.2,55.9z"></path>
	<path class="st1" d="M39,55.1L27.4,66.7c-1.6,1.6-1.6,4.2,0,5.8c1.6,1.6,4.2,1.6,5.8,0l11.6-11.6C42.6,59.3,40.6,57.3,39,55.1z"></path>
	<path class="st3" d="M48.2,45.7h-4c-0.5,0-1,0.5-1,1v4.9c1.3,2.4,3.4,4.4,6,5.5V46.7C49.2,46.2,48.8,45.7,48.2,45.7z"></path>
	<path class="st4" d="M64.2,39.7h-4c-0.5,0-1,0.5-1,1v16.5c2.6-1.1,4.7-3.1,6-5.5v-11C65.2,40.2,64.8,39.7,64.2,39.7z"></path>
	<path class="st3" d="M56.2,42.7h-4c-0.5,0-1,0.5-1,1v14.1c1,0.2,2,0.4,3,0.4s2-0.1,3-0.4V43.7C57.2,43.2,56.8,42.7,56.2,42.7z"></path>
</g>
</svg>