<svg xmlns="http://www.w3.org/2000/svg" xmlns:xlink="http://www.w3.org/1999/xlink" id="Layer_1" x="0px" y="0px" viewBox="0 0 167.8 140.1" style="enable-background:new 0 0 167.8 140.1;" xml:space="preserve">
<style type="text/css">
	.st0{fill:#FFFFFF;}
</style>
<path class="st0" d="M133,127.8c0.3-0.1,0.4-0.2,0.7-0.3c0.1,0,0.2,0.1,0.2,0.1c-3.1,3.1-7,5.3-10.7,6.3c-2.8,0.8-5.6,0.9-8.5,0.6  c-4.4-0.5-8.3-2.3-12-4.7c-2.2-1.4-4.4-2.9-6.5-4.4c-2.5-1.7-5.2-2-8.1-1.5c-1.6,0.2-0.4,0.9-0.1,1c3.9,1.9,7.5,4.2,11,6.8  c2.3,1.7,6.5,5.7,6.5,5.7l-3.1,2.7c0,0-2.4-2.7-3.4-3.7c-6.8-7.1-12.8-10.2-14.2-11c-0.2-0.1-0.5-0.3-0.7-0.3  c-0.2,0-0.5,0.1-0.7,0.3c-1.3,0.8-7.4,3.9-14.2,11c-1,1-3.4,3.7-3.4,3.7l-3.1-2.7c0,0,4.1-4,6.5-5.7c3.4-2.6,7.1-4.9,11-6.8  c0.2-0.1,1.4-0.9-0.1-1c-2.9-0.5-5.6-0.2-8.1,1.5c-2.2,1.5-4.3,3-6.5,4.4c-3.7,2.4-7.6,4.2-12,4.7c-2.9,0.3-5.7,0.2-8.5-0.6  c-3.8-1.1-7.7-3.2-10.7-6.4c0,0,0.2-0.1,0.2-0.1c0.3,0.1,0.4,0.2,0.7,0.3c4.5,2.3,9.3,2.6,14.2,1.7c3.4-0.6,6.5-2,9.6-3.3  c2.2-1,4.5-2,6.8-2.8c6-2,12-1.9,18.1-0.4c0.1,0,0.2,0,0.3,0.1c0.1,0,0.2,0,0.3-0.1c6.1-1.5,12.1-1.6,18.1,0.4  c2.3,0.8,4.5,1.8,6.8,2.8c3.1,1.3,6.2,2.7,9.6,3.3C123.6,130.4,128.4,130.1,133,127.8 M148,114.4c-2.6,2-4.3,2.7-6.4,3.4  c-3.2,1.1-6.7,1.3-10.1,1.5c-4.5,0.2-8.8,0.4-13.2,1.1c0,0,0,0-0.1,0c-0.3,0-0.4-0.1-0.3-0.2c0,0,0,0,0.1,0c3.9-1.4,6.6-4.5,8.6-8.3  c1.4-2.7,3.7-7.8,4.3-8.7c0,0,0-0.2,0-0.2c-0.3,0.1-4.6,3.8-6.6,5.6c-2.4,2.3-4.7,4.7-7.2,7c-3.8,3.6-9.3,5.2-11.3,5.8  c0,0-0.1,0-0.2,0.1c-0.1,0.1-0.1,0.1-0.1,0.2c0,0,0,0,0,0c0,0,0.1,0,0.1,0c1.5,0.4,6,1.3,8.3,1.9c3.5,0.9,7,1.7,10.7,2  c3.9,0.3,7.9-0.1,11.5-1.5c4.2-1.6,9.3-5.2,12.2-9.6c0,0,0,0,0,0C148.2,114.3,148,114.4,148,114.4 M161.4,93.8  c-0.1,0.2-2.3,3-7.7,6.7c-2.6,1.8-5,3-7.9,4.3c-3.6,1.7-6.7,3.2-9.7,5.7c-0.2,0.2-0.4,0.3-0.6,0.4c-0.1,0.1-0.2-0.1-0.1-0.2  c0.1-0.2,4.6-4.8,6-14.5c0.5-3.4,0.5-7.1,1.6-10.3c0-0.1,0-0.2-0.1-0.3c0,0,0,0,0,0c-3.3,3.8-6,9.6-7.3,13.3  c-0.9,2.6-1.8,5.2-2.7,7.8c-1.3,3.5-2.9,6.8-5.6,9.4c0,0-0.2,0.3-0.2,0.3s0,0.1,0,0.2c0,0,0,0,0,0c0.4-0.1,0.6-0.1,0.9-0.2  c3-0.6,6-1.3,9-1.8c5-0.8,9.4-2.6,13.5-5.7c4.1-3.1,7.5-6.8,9.8-11.4c0.6-1.2,1.1-2.4,1.5-3.7C161.6,93.8,161.5,93.8,161.4,93.8   M167.3,70.7c-1.3,4.1-3.6,7.5-7,11.1c-2.7,2.8-7.8,8-10.2,11.6c-0.1,0.1-0.2,0.1-0.2-0.1c1.1-3.2,1.6-8.7,0.9-13  c-0.6-3.7-2.2-7.7-2.6-12.2c0,0,0,0,0,0c0-0.1-0.1-0.2-0.2-0.2c0,0,0,0.1-0.2,0.4c-0.8,2.6-1.7,5.9-1.9,8.9  c-0.2,3.7,0.5,8.4,0.2,12.2c-0.4,4.4-0.6,8.7-2.7,12.7c0,0,0,0,0,0.1c0,0.1,0.1,0.3,0.1,0.3s0,0,0,0c1.6-1,6.2-3.7,9.2-5.7  c3.8-2.5,7.1-5.5,9.7-9.3c3.3-4.7,5.1-10.4,5.1-16.1c0-0.2,0-0.5,0-0.6C167.5,70.6,167.3,70.7,167.3,70.7 M157.6,73.2  C157.5,73.3,157.5,73.3,157.6,73.2c-0.2,0.1-0.2,0-0.2,0c0.1-1.2,0.2-2.6,0.1-3.7c-0.3-4.3-2.9-7.9-5.2-11.5  c-1.2-1.9-3.3-5.2-4.1-7.4c0,0-0.2-0.1-0.2-0.1c0,0.4,0.1,1.7,0.1,2.5c0.6,6.2,2.6,12.2,4.6,18.1c1.4,3.9,2,7.3,1.6,11.4  c0,0.3-0.1,0.4,0.1,0.5c0,0,0,0,0,0c1.4-2,4.1-4.8,5.8-6.9c1.8-2.2,10.9-12.6,6.4-27.1c-0.3-0.9-0.6-1.6-0.7-1.8  c-0.1,0-0.2,0.2-0.2,0.2c0,10.4-5,14.9-7.1,22C158.2,70.9,157.8,72.2,157.6,73.2 M157.6,51.7c0,0-0.5-1.4-1-2.5  c-0.2-0.5-0.4-1-0.6-1.3c-1.6-3.2-3.7-4.8-6.3-7c-1.7-1.4-4.1-4-5.6-6.2c0,0,0,0,0,0c0,0,0,0-0.1,0c-0.1-0.1-0.2-0.1-0.2,0  c-0.1,0-0.1,0-0.1,0c0.1,0.4,1.5,5,2.5,7.2c1.3,3.1,3.5,5.7,5.5,8.3c0.1,0.2,0.3,0.4,0.4,0.6c2,2.7,5.3,8.5,6,11.5  c0,0.1,0.2,0.2,0.2,0.1c0.3-1.1,1.6-5.2,2.6-8c0.2-0.6,1.9-6.2,2.3-8.6c1-6.9-1.3-15.7-5.3-20.6c-0.1,0-0.1,0.2-0.1,0.2  c0.1,0.2,0.1,0.4,0.2,0.6c0.1,0.3,0.2,0.6,0.2,0.9c1,4.5,0.7,7.6,0.2,11.4c-0.4,3-1,6-0.8,9.1c0,0.5,0.3,4.3,0.3,4.4  C157.8,51.9,157.6,51.8,157.6,51.7 M145.3,13.1c1.3,1.3,2.3,2.7,3,4.3c1.1,2.6,1.4,6.5,2.1,9.4c0.4,1.8,0.7,3.1,1.3,5.1  c0.1,0.2-0.1,0.3-0.2,0.1c0,0,0,0,0-0.1c-2.1-2.8-4.6-4.5-8.3-6.8c-2.2-1.4-3.8-2.7-5.4-4.8c-0.3-0.4-0.5-0.7-0.8-1.1  c0,0-0.2-0.1-0.2-0.1c0,0.1,0,0.2,0.1,0.5c0.5,2.3,2,6.7,4.7,9.3c1.9,1.9,4.1,3.5,6.2,5.2c3.7,3.1,6.4,6.4,7.3,7.5c0,0,0,0,0,0  s0.2,0.1,0.2,0c0,0,0,0,0,0c0,0,0,0,0,0c0-0.5-0.1-1.4-0.1-2.4c0-2.3,0.1-5.3,0.2-7.4c0-0.8,0.1-1.7,0.1-2.5c0-2.5-0.3-5-1.3-7.4  c-1.7-3.9-4.3-6.9-8.1-8.8c-0.2-0.1-0.5-0.2-0.7-0.3C145.2,12.8,145.2,12.9,145.3,13.1C145.3,13.1,145.3,13.1,145.3,13.1 M129.5,5.8  c2.2,2,4,4.3,5.6,6.7c1.6,2.3,3.2,4.7,5.3,6.6c1.4,1.4,5.6,4.7,6.6,5.5c0,0,0,0,0,0c0,0,0.1,0,0.1,0s0,0,0,0  c-0.2-1.2-2.1-10-7.6-14.3c-3-2.6-6.9-4.1-10.7-5.2c0,0.1,0,0.3,0,0.3C129.2,5.5,129.3,5.6,129.5,5.8 M43.3,125.6  c3.6-0.3,7.2-1,10.7-2c2.3-0.6,6.7-1.6,8.3-1.9c0,0,0.1,0,0.1,0c0,0,0,0,0,0c0,0,0-0.1-0.1-0.2c0,0-0.1-0.1-0.2-0.1  c-2-0.5-7.5-2.1-11.3-5.8c-2.4-2.3-4.7-4.7-7.2-7c-2-1.8-6.3-5.5-6.6-5.6c0,0-0.1,0.2,0,0.2c0.6,0.8,2.9,6,4.3,8.7  c2,3.8,4.7,6.9,8.6,8.3c0,0,0.1,0,0.1,0c0.1,0.1,0,0.2-0.3,0.2c0,0,0,0-0.1,0c-4.4-0.7-8.7-0.9-13.2-1.1c-3.4-0.2-6.9-0.4-10.1-1.5  c-2.2-0.7-3.8-1.4-6.4-3.4c0,0-0.2-0.1-0.3,0c0,0,0,0,0,0c2.9,4.4,8.1,8.1,12.2,9.6C35.4,125.4,39.4,125.8,43.3,125.6 M39.9,116.5  c0.2,0.1,0.5,0.1,0.9,0.2c0,0,0,0,0,0c0-0.1,0-0.2,0-0.2s-0.2-0.2-0.2-0.3c-2.7-2.7-4.3-5.9-5.6-9.4c-0.9-2.6-1.8-5.2-2.7-7.8  c-1.3-3.7-4-9.5-7.3-13.3c0,0,0,0,0,0c0,0.1-0.1,0.2-0.1,0.3c1.1,3.3,1.2,6.9,1.6,10.3c1.3,9.7,5.8,14.3,6,14.5  c0.1,0.1,0,0.3-0.1,0.2c-0.2-0.1-0.4-0.3-0.6-0.4c-3-2.5-6.1-4-9.7-5.7c-2.9-1.3-5.3-2.5-7.9-4.3c-5.4-3.7-7.6-6.6-7.7-6.7  c-0.1-0.1-0.2-0.1-0.3,0c0.4,1.3,0.9,2.5,1.5,3.7c2.2,4.7,5.7,8.3,9.8,11.4c4.1,3.1,8.5,4.9,13.5,5.7  C33.9,115.2,36.9,115.9,39.9,116.5 M15,96.6c3,2,7.6,4.7,9.2,5.7c0,0,0,0,0,0s0.1-0.2,0.1-0.3c0,0,0,0,0-0.1c-2-4-2.3-8.3-2.7-12.7  c-0.3-3.8,0.4-8.5,0.2-12.2c-0.2-3-1.1-6.3-1.9-8.9c-0.1-0.3-0.1-0.4-0.2-0.4c-0.1,0-0.2,0.1-0.2,0.2c0,0,0,0,0,0  c-0.4,4.5-2,8.5-2.6,12.2c-0.7,4.3-0.2,9.9,0.9,13c0.1,0.2-0.1,0.2-0.2,0.1c-2.4-3.6-7.5-8.8-10.2-11.6c-3.4-3.6-5.8-6.9-7-11.1  c0,0-0.2-0.2-0.2-0.1c0,0,0,0.4,0,0.6c-0.1,5.8,1.8,11.4,5.1,16.1C7.9,91.1,11.3,94.1,15,96.6 M13.4,83C13.4,83,13.5,83,13.4,83  c0.2-0.1,0.1-0.1,0.1-0.5c-0.4-4.2,0.3-7.5,1.6-11.4c2-5.9,4-11.9,4.6-18.1c0.1-0.8,0.2-2.1,0.1-2.5c-0.1,0-0.2,0.1-0.2,0.1  c-0.9,2.2-2.9,5.5-4.1,7.4c-2.3,3.6-4.9,7.2-5.2,11.5c-0.1,1.1-0.1,2.5,0.1,3.7c0,0,0,0.1-0.1,0.1c0,0-0.1,0-0.1-0.1  c-0.3-1.1-0.6-2.3-1-3.7c-2.1-7.1-7.1-11.6-7.1-22c0,0-0.1-0.2-0.2-0.2c-0.1,0.2-0.4,0.9-0.7,1.8C-3.3,63.6,5.9,74,7.7,76.2  C9.3,78.2,12.1,81,13.4,83 M6.9,54.2c1,2.8,2.3,6.9,2.6,8c0,0,0.2,0,0.2-0.1c0.8-3,4-8.8,6-11.5c0.1-0.2,0.3-0.4,0.4-0.6  c2-2.7,4.2-5.2,5.5-8.3c0.9-2.1,2.4-6.7,2.5-7.2c0,0-0.1,0-0.1,0c0,0-0.1,0-0.2,0c0,0,0,0-0.1,0c0,0,0,0,0,0  c-1.4,2.2-3.9,4.8-5.6,6.2c-2.7,2.2-4.7,3.8-6.3,7c-0.2,0.3-0.4,0.8-0.6,1.3c-0.5,1.1-1,2.5-1,2.5c0,0.1-0.2,0.2-0.2,0  c0-0.1,0.3-3.9,0.3-4.4c0.2-3.1-0.4-6-0.8-9.1c-0.5-3.8-0.9-6.9,0.2-11.4c0.1-0.3,0.2-0.6,0.2-0.9c0.1-0.2,0.1-0.4,0.2-0.6  c0,0,0-0.2-0.1-0.2c-4,4.9-6.3,13.8-5.3,20.6C5,48.1,6.7,53.7,6.9,54.2 M12.5,31.8c0.1,2.1,0.2,5.1,0.2,7.4c0,1,0,1.9-0.1,2.4  c0,0,0,0,0,0c0,0,0,0,0,0c0,0.1,0.2,0,0.2,0s0,0,0,0c0.9-1.1,3.6-4.4,7.3-7.5c2.1-1.7,4.3-3.4,6.2-5.2c2.7-2.6,4.3-6.9,4.7-9.3  c0-0.2,0.1-0.4,0.1-0.5c0,0-0.2,0-0.2,0.1c-0.3,0.4-0.6,0.7-0.8,1.1c-1.6,2.1-3.2,3.4-5.4,4.8c-3.6,2.3-6.2,4-8.3,6.8c0,0,0,0,0,0.1  c-0.1,0.2-0.3,0.1-0.2-0.1c0.6-2,0.9-3.3,1.3-5.1c0.7-2.9,1-6.8,2.1-9.4c0.7-1.6,1.7-3,3-4.3c0,0,0,0,0,0c0.1-0.2,0-0.3,0-0.3  c-0.2,0-0.5,0.2-0.7,0.3c-3.8,1.9-6.4,5-8.1,8.8c-1.1,2.4-1.3,4.9-1.3,7.4C12.4,30.1,12.4,30.9,12.5,31.8 M20.6,24.6  C20.6,24.6,20.6,24.6,20.6,24.6c0.1,0,0.1,0,0.1,0c1-0.8,5.2-4,6.6-5.5c2.2-1.9,3.7-4.2,5.3-6.6c1.7-2.4,3.4-4.8,5.6-6.7  c0.2-0.2,0.3-0.3,0.5-0.4c0,0,0.1-0.2,0-0.3c-3.8,1-7.7,2.6-10.7,5.2C22.7,14.6,20.8,23.3,20.6,24.6C20.6,24.6,20.6,24.6,20.6,24.6   M82.4,72.4c0.4-0.6-0.6-1.1-0.9,0.1C81.2,73.5,82,73,82.4,72.4 M94.1,45.3c-0.4-0.2-2.1,1.9-1.9,2.2C92.4,47.7,94.3,45.4,94.1,45.3   M94.5,44.9c0.3,0.1,1.4-0.5,1.2-0.6c-0.2-0.2-1.5-0.8-1.6-0.4C94.1,44.5,94.2,44.8,94.5,44.9 M115.1,64c0.6-0.1,0.5-1.1,0-1  c-0.5,0-1.1,0.8-1,0.8C114.5,63.8,114.8,64.1,115.1,64 M107.6,43.6c-0.5,0-0.6,0.5-0.1,0.7c0.2,0.1,0.8,0,1.1-0.2  c0.3-0.2,0.7-0.4,0.6-0.9c0-0.3-0.7-1.1-0.4-1.4c0.4-0.3,0.8,0.2,1.1,0c0.4-0.2,0.4-0.4,0.4-0.8c0-0.5-0.2-1.2-0.8-1.2  c-0.5,0-1.2,1.2-1.3,1.3c-0.1,0.1-0.2,0.6,0,1C108.6,42.8,108.5,43.5,107.6,43.6 M117.8,43.6c0,0.3,0.8,2.2,0.9,2.8  c0.1,0.5,0.2,2.1,0.7,2c0.3-0.1,0.2-1.1,0.2-1.5c-0.2-1.1-0.4-2.1-0.8-3.3c-0.2-0.7-1.2-2.8-1.5-2.8c-0.3,0.1,0.5,1.6,0.6,2.1  C117.9,43.2,117.8,43.4,117.8,43.6 M112.4,17.5c0.5,0.2,0.5-0.7-0.4-1.4c-0.8-0.7-2-0.4-1.7,0C110.7,16.4,112,17.4,112.4,17.5   M89.4,10.9c-1-0.6-0.2-1.5-1-2.1c-0.6-0.4-2.1,0-2.5,0.5c-0.7,0.9,0.9,0.6,1.4,0.8c0.6,0.3,2,1.4,2.2,1.2  C89.8,11.1,89.5,11,89.4,10.9 M95.5,7.9c-1.4-0.6-6.4-0.6-6.3,0.7c0.1,1.1,2.9,0.1,3.7,0C93.6,8.5,96.7,8.5,95.5,7.9 M81.5,67.2  c-0.2-0.1-0.8,0.1-0.9-0.1c-0.1-0.3-0.5-0.2-0.4,0c0.1,0.2-0.1,0.5,0.1,0.8c0.3,0.3,0.9,0.3,1.3,0C81.7,67.7,81.6,67.3,81.5,67.2   M78.6,57c0.4,0,0.4-0.3,0.6-0.3c0.2,0,0,0.3,0.5,0.3c0.4,0,0.9-1.1-0.5-1.1C78.1,55.9,78.3,56.9,78.6,57 M80.4,58.1  c-0.8-0.2-0.7,0.3-1.2,0.3c-0.9,0.1-0.1-0.6-0.5-1c-0.2-0.1-0.7,0.6-0.7,1c0,0.2,0,1,0.3,1c0.4,0,2.3,0.2,2.9,0.4  C81.9,60,81.2,58.3,80.4,58.1 M71,68.2c0.3,0,0.4-0.9,0.3-1.4c-0.2-0.5-1-0.1-1.1,0.1C70.1,67.2,70.7,68.2,71,68.2 M58.7,68.1  c0-0.4,0-1.6-0.3-1.8c-0.3-0.2-0.2,0.2-0.4,0.2c-0.2,0-0.1-0.6-0.3-0.6c-0.2,0,0.1,0.9,0.3,1.5C58.1,68,58.6,68.8,58.7,68.1   M58.4,65.3c0.1-0.1,0.5-2.1,0.4-2.8c-0.1-0.7-0.5-1.4-0.6-1.4c-0.1,0.1,0.1,0.5,0.1,1.2c0,1.1-0.5,2-0.5,2.3  C57.8,65,58.1,65.7,58.4,65.3 M42.6,99.8c-11-11-17.1-25.7-17.1-41.4c0-15.6,6.1-30.3,17.1-41.4C53.6,6.1,68.3,0,83.9,0  s30.3,6.1,41.4,17.1c11,11,17.1,25.7,17.1,41.4c0,15.6-6.1,30.3-17.1,41.4c-11,11-25.7,17.1-41.4,17.1S53.6,110.9,42.6,99.8   M28,59.7c0.3,14.1,5.8,27.3,15.5,37.4l6.4-6.4c-1.2-1.3-2.4-2.7-3.5-4.2c-0.5-0.2-1-0.5-1.3-0.9c-0.5-0.7-0.8-1.7-1.1-1.7  c-0.3,0,0,0.6-0.6,0.7c-0.8,0.1-1.9-1.8-2.3-2.6c-0.5-0.8-1.4-0.8-1.8-1.6c-0.1-0.2-0.4-0.9-0.7-0.5c-0.4,0.7-1.9-1.5-2.3-1.4  c-0.4,0.2,0,0.6-0.3,0.8c-0.4,0.4-1.7-1.7-2.2-1.5c-0.4,0.2-0.5,0.5-0.6,1c0,0.6,0.7,2.1,0.4,2.2c-0.4,0.2-2.2-4.5-1.8-4.7  c0.2-0.1,0.2,0.2,0.4,0.1c0.3-0.2-0.2-0.5-0.3-1c-0.1-0.5-0.6-0.5-0.6-1.1c0-0.6,0.8-0.4,0.8-0.7c0-0.3,0.1-0.6,0.3-0.8  c0.3-0.2,0.9,0,1-0.8c0.1-0.7,0.5-0.1,0.5,0.5c0.1,0.6,1.6,0.7,1.7,0.3c0-0.3-0.6-0.2-0.6-0.5c0-0.4,0.8,0,1.4,0  c0.3,0,0.7-0.4,1.3-0.1c0.6,0.3,1,0.5,1.4,0.5c-1.4-4.2-2.2-8.7-2.3-13.4H28 M78.9,46.8c0.4-0.8,1.4-1.6,1.5-1.5  c0.1,0.1-0.6,0.7-0.9,1.3c1-0.4,2.1-0.6,3.2-0.7v-9c-5,0.3-9.6,2.3-13.1,5.5l6.3,6.3c0.7-0.6,1.5-1.1,2.4-1.5  C78.5,47,78.7,46.9,78.9,46.8 M74.2,61.4L74.2,61.4L74.2,61.4C74.2,61.4,74.2,61.4,74.2,61.4C74.2,61.4,74.2,61.4,74.2,61.4  c0-0.2,0-0.2,0-0.3c0,0,0,0,0,0c0-0.1,0-0.1,0-0.2c0,0,0,0,0,0c0,0,0-0.1,0-0.1c0,0,0,0,0,0c0,0,0-0.1,0-0.1c0,0,0,0,0,0  c0,0,0-0.1,0.1-0.1c0.1-0.1,0.2-0.1,0.3-0.1c0.2,0,0.5,0.2,0.8,0.2c0.2,0,0.4,0,0.6-0.3c0.1-0.1,0.1-0.2,0.2-0.3  c0.1-0.1,0.1-0.2,0.1-0.3c0,0,0-0.1,0-0.1c0-0.1-0.2-0.1-0.4,0c-0.1,0-0.1,0-0.2,0c-0.1,0-0.2,0-0.3,0.1c0,0-0.1,0-0.1,0  c-0.1,0-0.3-0.1-0.4-0.2c0,0-0.1-0.1-0.1-0.2c0-0.1-0.1-0.1-0.1-0.2c-0.2-0.2-0.4-0.3-0.6-0.5c-0.1-0.1-0.2-0.1-0.4-0.3  c-0.1-0.1-0.1-0.1-0.2-0.2c0-0.1-0.1-0.1-0.1-0.1c0,0,0,0-0.1,0c0,0-0.1-0.1-0.1-0.1c0,0,0,0-0.1-0.1c0,0-0.1,0-0.1-0.1  c0,0-0.1,0-0.1-0.1c0,0,0,0-0.1,0c0,0-0.1,0-0.1-0.1c0,0,0,0-0.1,0c0,0-0.1,0-0.1,0c0,0,0,0,0,0c0,0-0.1,0-0.1,0c0,0,0,0,0,0  c-0.3-0.1-0.6,0-0.9,0.3c0,0,0,0,0,0c0,0-0.1,0.1-0.1,0.2c0,0,0,0,0,0c0,0.1-0.1,0.1-0.1,0.2c0,0,0,0,0,0c0,0.1-0.1,0.2-0.1,0.2  c-0.1,0.2-0.2,0.4-0.3,0.6c-0.7,1.9-1.6,1.3-1.4,2c0,0.1,0.2,0.1,0.5,0.2c0.1,0,0.3,0,0.4,0c0.1,0,0.3,0,0.4,0c0.2,0,0.3,0,0.5,0  c0.1,0,0.2,0,0.2,0c0,0,0.1,0,0.1,0c0,0,0.1,0,0.1,0c0,0,0.1,0,0.1,0c0,0,0.1,0,0.1,0c0,0,0.1,0,0.1,0c0.1,0,0.1,0,0.2-0.1  c0.1,0,0.2-0.1,0.3-0.1c0,0,0,0,0,0c0.1,0,0.2-0.1,0.3-0.1c0.2,0,0.4,0,0.5,0c0.1,0,0.3,0.1,0.5,0.3c0.1,0.2,0.2,0.5,0.3,0.7  c0-0.1,0-0.1,0-0.2c0,0,0,0,0,0c0,0,0-0.1,0-0.1C74.1,61.6,74.1,61.5,74.2,61.4C74.2,61.5,74.2,61.5,74.2,61.4 M57.2,76.3  c0.4,0.8,1.1,1.5,1.1,2.5c0,0.2,0,0.4,0,0.5c0.5,0.6,0.9,1.1,1.4,1.7l6.3-6.3c-3-3.3-5.1-7.4-5.9-12c-0.2,0.1-0.4,0-0.5-0.2  c-0.1-0.2,0.1-0.4,0.3-0.7c-0.1-0.7-0.2-1.4-0.2-2h-4.2c0,0.7,0.3,1.6-0.1,2c-0.4,0.3-0.9,0-1.2,0c-0.8,0.1-1,1.1-0.8,1.8  c0.1,0.4,0.3,0.8,0.3,1.3c-0.1,0.5-0.3,0.8,0.4,1.2c0.7,0.3,1.7,1.7,1.6,1.9c-0.1,0.3-0.8-0.3-0.8,0.3c0,0.3,1-0.1,0.9,1  c0,0.7,0.1,1.4,0.3,1.8c0.4,0.9,0.8,1.6,0.8,2.6C56.9,74.5,56.8,75.4,57.2,76.3 M51.6,65.5c0.9,0.3,2.6-0.4,1.4-1.8  c-0.5-0.6,0.3-2.3,0.5-2.6c0.1-0.4,0.9-0.8,1.2-1.3h-3.8C50.9,61.7,51.2,63.6,51.6,65.5 M52.3,88.3c-0.7-0.4-1.3-0.7-1.7-0.5  c0,0-0.1,0-0.1,0c0.3,0.4,0.7,0.8,1,1.1L52.3,88.3 M61.8,48.8c1-2.4,2.5-4.6,4.2-6.5L59.7,36c-5.2,5.6-8.5,13.1-8.8,21.2h4.4  c0.7-1.2,0.5-2.1,0.7-2.8c0.2-0.7,0.6-1.3,1-1.9c0.3-0.5,0.7-1.1,1.4-1.1c1.4,0,1.8-0.8,2.7-1.2c0.9-0.4,2.5-0.7,2.4-1.1  c-0.1-0.3-3.4,0.9-3.5,0.7c-0.1-0.4,1-0.4,1.5-0.8C61.6,48.9,61.7,48.8,61.8,48.8 M67.8,44.1c-1.1,1.3-2.1,2.7-2.9,4.2  c0.1,0,0.2-0.1,0.3-0.1c1.1-0.6,2.5-0.5,3.1-0.2c0.8,0.3,1.8,1.2,2.2,1.6c0.2,0.2,0.3-0.1,1.2-0.3c0.4-0.1,0.5,0.3,1,0.4  c0.2,0,0.4,0,0.6,0L67.8,44.1 M60,55.4c-0.4-0.2-0.9-0.3-1.3-0.4c-0.7-0.1-1.4,0.2-1.8,0.8c-0.3,0.4-0.3,0.9-0.2,1.3h3.2  C59.8,56.6,59.9,56,60,55.4 M62.7,62.6c0.8,3.9,2.6,7.4,5.1,10.2l6.3-6.3c-0.5-0.6-1-1.3-1.4-2c0,0,0,0,0,0  c-0.1,0.1-0.2,0.2-0.2,0.3c-0.1,0.3,0,1.2-0.4,1.6c-0.5,0.5-1.9-1.2-2.3-1.3C69.3,65,69,65.6,69,65.8c0.1,0.5,0,0.7-0.2,0.7  c-0.2,0-1.3-0.7-0.8-0.9c0.6-0.2-0.1-0.7-0.4-0.9c-0.4-0.3-1.1,0-1.4-0.4c-0.3-0.5-0.9-0.8-1.1-0.8c-0.1,0-0.8-0.3-1.2-0.1  c-0.3,0.2-0.7-0.2-0.9-0.4C63,62.9,62.8,62.8,62.7,62.6 M67.8,40.6c4-3.6,9.2-5.9,14.9-6.2v-9c-8.2,0.3-15.6,3.6-21.2,8.8L67.8,40.6   M59.7,32.5c6.1-5.7,14.1-9.2,23-9.5v-9C71.3,14.3,61,18.8,53.3,26.1L59.7,32.5 M51.6,27.9c-7.3,7.7-11.9,18-12.2,29.3h9  c0.3-8.9,3.9-16.9,9.5-23L51.6,27.9z M39.4,59.7c0.1,4.6,1,9.1,2.4,13.3c0.1,0,0.1,0,0.2,0c0.9,0,2.1,0,2.7-0.5  c0.9-0.7,0.1-3.1,0.6-4.1c0.7-1.3,2.4-4.2,2.9-4.2c0.5,0,0.4,0.3,0.7,0.4c-0.3-1.6-0.4-3.2-0.5-4.8H39.4z M82.7,105.5  c-12-0.3-22.9-5.2-31.1-12.9l-6.4,6.4c10.2,9.7,23.4,15.2,37.4,15.5V105.5z M82.7,94c-7.9-0.3-15.4-3.1-21.5-8.2  c0.1,0.2,0.3,0.3,0.3,0.5c0.4,0.7,1.8,2.2,0.9,2.7c-0.8,0.5-2,0.2-2.7,0.1c-0.8,0-1.9,1.1-2.6,1.3c-0.8,0.1-1.3,0.1-2.1-0.2  c-0.2-0.1-0.4-0.2-0.7-0.4l-1,1c7.7,7.3,18,11.9,29.3,12.2V94z M82.7,90.9c-1.3,0.1-3.2,0.1-3.6-0.2c-0.9-0.7-2.1-1.3-2.2-1.8  c-0.2-0.9-1.5-1.6-1.5-2.4c0-0.9,1.3-1.2,0.9-2.2c-0.3-0.8,0.5-1.7,1.8-2.3c-3.9-1-7.5-2.9-10.4-5.5l-6.3,6.3  c5.8,5.4,13.3,8.5,21.2,8.8V90.9z M82.3,79.2c0.8,0.6,1.7-0.2,2.3-0.3c1-0.2,2-0.4,2.8-0.5c0.9-0.1,0,1.2,0.5,1.3  c0.7,0.1,3.4,0.5,3.6-0.1c0.2-0.5,0.2-0.7,0.8-0.9c1.1-0.2,2-0.2,2.9-0.9c0.3-0.3,1-0.4,1.2-0.7c0.2-0.4-0.1-2.2-0.8-1.9  c-0.3,0.1-0.7,0.6-1.4,1c-0.6,0.3-1.1,0.5-1.5-0.1c-0.4-0.6,0.2-1,0.6-1.4c0.5-0.6,1-1.2,1.6-1.2c0.2,0,1.4-0.6,1.3-1.1  c-0.1-0.7-1.5,0.1-1.9-0.2c-0.2-0.2,0-0.7-0.2-0.8c-0.2-0.1-0.7,0.6-0.3,1c0.2,0.2-0.3,0.8-0.9,0.4c-0.5-0.3-0.6,1.4-0.6,1.7  s0.7,0.2,0.3,0.8c-0.4,0.6-0.6,0.1-0.9,0.4c-0.4,0.3-0.5,0.5,0,1c0.4,0.4-0.2,1.1-0.4,0.4c-0.1-0.5-1.1-0.3-1.2-0.8  c-0.2-0.5-1-0.5-1.9-1c-0.7-0.4-0.6,0.7,0.6,1c1,0.2,1,0.4,0.7,1c-0.2,0.5-0.2-0.4-1.4-0.7c-0.8-0.2-0.8-0.6-1.5-0.6  c-0.6,0-0.4,0.6-1.1,0.4c-0.5-0.1-0.6,0.6-1,0.8c-0.6,0.2-0.5,1.3-1.1,1.6c-0.9,0.4-2.6,0.1-2.5-0.7c0.1-0.8,0.1-1.5,0.6-1.8  c0.4-0.3,1.1,0.5,1.7,0.2c0.6-0.3,0.5-0.9,0.1-1.4c-0.1-0.1-0.6-0.4-0.6-0.5c0-0.2,0.9-0.3,1.4-0.6c0.5-0.3,0.9-1.1,1.2-1.3  c0.2-0.2,0.7-0.2,0.8-0.4c0.1-0.2-0.3-0.6-0.3-0.9c0-0.3,0.1-0.5,0.4-0.5c0.2,0,0.5,0.6,0.3,0.8c-0.2,0.2,0.1,0.5,0.4,0.3  c0.3-0.1,1.3-0.5,1.7-0.6c0.4-0.1-0.1-1.1,0-1.2c0.1-0.2,0.3,0.1,0.4-0.1c0.2-0.2-0.3-0.3-0.2-0.7c0.1-0.3,1.2-0.6,0.9-0.8  c-0.3-0.2-0.7,0.4-1,0.5c-0.5,0.2-0.8-0.4-0.8-0.8c0-0.2,0.3-1,0-1.2c-0.4-0.2-0.4,0.7-0.5,0.9c-0.1,0.3-0.3,0.6,0.1,1.4  c0.2,0.4,0.1,1.8-0.3,1.9c-0.4,0.2-0.6-0.7-0.9-1c0-0.1-0.1-0.1-0.1-0.1c0,0,0,0,0,0c0,0,0,0-0.1,0c0,0,0,0,0,0c0,0,0,0-0.1,0  c0,0,0,0,0,0c0,0,0,0-0.1,0.1c0,0.1-0.1,0.2-0.1,0.2c0,0.1-0.1,0.2-0.2,0.4c-0.1,0.2-0.2,0.2-0.3,0.3c-0.5,0.1-0.9,0.1-1.4,0.1  c-0.2,0-0.4,0-0.5,0c0.1,0.3,0.2,0.6,0.3,0.8c0.2,0.5,0.7,0.8,0.6,1.2c-0.1,0.3-1.5,0.7-1.6,0.4c-0.2-0.3,0.4-1,0.3-1.2  c-0.1-0.5-0.3-0.8-0.3-1.2c-2.6-0.3-4.9-1.3-6.8-2.8l-6.3,6.3c3.1,2.8,7.1,4.7,11.4,5.3C81.6,79.5,81.8,78.9,82.3,79.2 M90.5,93.5  C88.7,93.8,87,94,85.2,94v9c3.6-0.1,7.1-0.6,10.5-1.6c-0.7-0.6-1-1.6-1.9-1.9c-1.5-0.5-1.9-1.4-1.1-2.8c0.4-0.7,0.3-1-0.2-1.8  C91.8,94.1,91,93.7,90.5,93.5 M85.2,91.5c1.5-0.1,2.9-0.2,4.3-0.4c-0.3-0.3-0.9-0.3-1.3-0.2c-1.5,0.4-1-0.8-3-0.5V91.5 M85.2,114.4  c14.1-0.3,27.3-5.8,37.4-15.5l-6.4-6.4c-3.3,3.1-7,5.7-11.1,7.8c-1.3,1-3,1.7-4.2,2.3c-0.5,0.2-1.1,0.5-1.7,0.5  c-0.2,0-0.4-0.1-0.5-0.2c-4.3,1.4-8.9,2.3-13.6,2.4V114.4 M110.1,34.1c0,0,0,0.1,0,0.1c0,0.1,0,0.1-0.1,0.1c1.5,1.6,2.8,3.3,4,5.2  c0.1-0.2,0.2-0.3,0.4-0.1c0.3,0.4-0.3,1,0.6,0.8c0.6-0.1,0.4,0.6,0,1c0.3,0.5,0.6,1,0.8,1.6c0.3,0.1,0.6,0.3,0.6,0.5  c0.1,0.6,0.4,1.3,0.5,2c0.4,1.1,0.8,2.3,1.2,3.5c0.5-0.4,1-0.2,1,0.5c0.1,0.7-0.2,1.4-0.4,2c0.4,1.9,0.7,3.9,0.7,6h9  c-0.2-5.8-1.5-11.5-3.8-16.8c-0.2,0.1-0.4,0.2-0.7,0.5c-0.5,0.6-1.2-0.1-1.6-0.6c-0.7-0.9-2.5-3.5-3.3-3.7c-0.7-0.1-1.2-1-1.9-1.1  c-0.7-0.1-1.6-0.5-1.7-1.3c-0.1-0.8-0.4-1.1-1.2-1.2c-0.9-0.1-1.5-0.5-2.1-1.1L110.1,34.1 M115.5,86.3c0.3,0.8,0.5,1.6,0.2,2.3  l0.5,0.5c7.3-7.7,11.9-18,12.2-29.3h-9c-0.3,8.9-3.9,16.9-9.5,23l3.2,3.2c0,0,0-0.1,0.1-0.1c0.3-0.6,0.2-1.3,0.2-1.8  c0-0.3,1.3-0.3,1.3,0.3C114.9,84.8,115.1,85.1,115.5,86.3 M108.1,92.4c-0.4,0.7,1.1,1,0.8,1.7c-0.2,0.6-1.4,1.6-1.2,1.9  c2.4-1.5,4.7-3.3,6.7-5.3l-6.3-6.3c-0.4,0.4-0.9,0.8-1.4,1.2c-0.1,0.7,0,1.3,0.9,1.6c1,0.3,2.6,1.3,2.2,2.2  C109.5,90.3,108.6,91.6,108.1,92.4 M112,55.7c0.5,0.7-1.2,0.5-1.5,1.4c0,0,0,0.1-0.1,0.1h6.6c0-1-0.1-1.9-0.2-2.8  c-0.1,0.1-0.1,0.2-0.2,0.3c-0.5,1-0.6,0.4-0.5,0c0-0.6,0.3-1.1,0.5-1.7c-0.1-0.3-0.1-0.6-0.2-0.9c-0.2,0.3-0.5,0.5-0.9,0.7  c-0.3,0.1-0.6,0.8-0.7,1.1c-0.1,0.3-0.9-0.1-1.4,0.2C112.3,54.6,111.2,54.7,112,55.7 M113.2,43.1c-1.4-2.6-3.1-5-5-7.1l-6.3,6.3  c1.1,1.2,2.1,2.5,2.9,3.9c0.7,0.1,1.8,0.4,2.4,1.3c0.5,0.6,1.8,1.8,1.6,2.3c-0.1,0.3,0.2,0.7,0.5,0.9c0.5,0.3,0.8,0.3,1.1,0  c0.5-0.6,0.5-1.4,1.2-1.9c0.8-0.6,2.3,1.2,2.3,1.5c0,0.3-0.4,0.4-0.5,1c-0.2,0.8-0.8,1.8-0.1,2c1.1,0.4,1.3-0.1,1.8-0.9  c0.3-0.4,0.2-1,0.5-1.3c0.2-0.2,0.4-0.3,0.7-0.5c-0.4-1.8-1-3.5-1.7-5.1c-0.2-0.2-0.4-0.3-0.6-0.4c-0.4-0.1-0.2-0.5-0.7-0.7  c-0.6-0.2-0.8-0.4-0.9-1.4c0-0.9,0.7,0.3,0.9,0.1C113.1,43.2,113.2,43.1,113.2,43.1 M102.5,47.4c-0.6-1-1.3-2-2-2.9  c-0.3,0-0.6-0.1-0.8-0.1l-2.1,2.1c0.4,0.1,0.8,0,1.3,0.2c0.6,0.2,0.3-1.6,1.1-1.4c0.9,0.2,1.1,0.7,0.4,1c-0.6,0.2,0.1,0.7-0.6,0.9  c-0.6,0.2,0.5,0.8,0.5,1c0,0.3-0.9,0.5,0.4,0.9c1.3,0.4,0-1.1,0.2-1.3c0.2-0.3,0.9,0.4,1.1,0.1C102.2,47.8,102.4,47.7,102.5,47.4   M100.1,78.6c-0.5-0.1-2.9-1.1-2.9-0.7c0,0.4-0.4,0.1-0.6,0.2c-0.1,0.1,3.5,1.9,4.1,2c0.4,0.1,1.1,0.3,2.5,0.1  c0.9-0.2,1.1,0.2,1.5,0.2c0.6,0,1-0.8,1.3-1.3c0.9-1.3,0.7-1.5,1-1.7c0.3-0.3,1.2,1.7,1.1,3c0,0.2,0,0.4-0.1,0.6l0.1,0.1  c5.2-5.6,8.5-13.1,8.8-21.2h-6.8c0.2,0.4,0.6,0.9,1.1,1.8c0.3,0.7,0.5,1.8,1.1,1.9c0.9,0.1,1.9,0.9,1.9,1.5c0.1,1.4-4.2,1.7-4.7,1.5  c-0.5-0.1-0.8-0.2-0.8,0.6c0,0.8-1.5,0.8-2.1,1.3c-0.7,0.6-0.7,1.6-1.2,2.3c-0.3,0.4-1.8,1.9-2.2,2.2c-1,0.7-2.9,0.7-2,1.2  c0.6,0.3,2,0.4,1.9,0.1c-0.2-0.4,0.1-0.4,0.3-0.1c0.2,0.2,0.8-0.2,0.8-0.7c0-0.4-0.1-1.1,0.3-1.1c0.6,0,1.2-0.7,1.5-0.6  c0.3,0.1,0.8,0.8,0.5,3.1c-0.3,2.3-1.4,3.9-1.9,4.7c-0.5,0.8-1,0.2-1.6-0.1C102.2,78.8,101,78.8,100.1,78.6 M124.4,97.2  c9.7-10.2,15.2-23.4,15.5-37.4h-8.9c-0.3,12-5.2,22.9-12.9,31.1L124.4,97.2 M139.9,57.2c-0.3-14.1-5.8-27.3-15.5-37.4l-6.6,6.6  c0.6,1.1,1.7,2.4,3.4,4c0.7,0.7,1.4,1.3,1.9,1.9c0.6,0.6,4.2,5.1,3.5,5.7c-0.1,0-0.1,0.1-0.2,0.1c2.8,5.9,4.4,12.4,4.5,19H139.9   M85.2,11.5c7.5,0.2,14.7,2.1,21.1,5.6c0.6-0.1,1.2-0.2,1.6-0.4c0.8-0.4,2.4,0.5,3.1,0.9c0.7,0.4,1.2,1,2,1.4c0.8,0.4,2,1.7,2.3,2.9  c0.3,1.3,1.1,1.2,0.7,1.7c-0.2,0.3,0.1,0.4,0.5,0.6l6.2-6.2C112.5,8.3,99.2,2.8,85.2,2.5V11.5z M85.2,22.9  c7.6,0.3,14.6,2.9,20.3,7.2c-0.6-0.8-1.3-1.7-1.6-2c-0.5-0.6-2.6-1.3-2.4-1.6c0.2-0.3,2,1.1,2.4,0.9c0.4-0.3-0.9-2-0.8-2  c0.1-0.1,1.7,1.4,2.4,2.7c0.3,0.5,1.2,0.2,1.8,0.7c0.6,0.4,0.6,1.1,1.1,1.5c0.1,0.1,1.1,0.7,0.5,0.6c-0.2,0-0.4-0.4-0.6-0.2  c-0.1,0.1,0.1,0.7,0.4,1.4l3-3c-0.4-0.9-1.3-2-1.9-2.2c-0.6-0.2-1,0.4-1.4,0.7c-0.4,0.3-0.9,0.5-1,0.2c-0.1-0.3,0.1-0.9,0.1-1.2  c0-0.3-0.3-0.6-0.4-0.9c-0.2-0.8,0.1-1.6-0.4-2.2c-0.5-0.6-0.9-1.4-1.3-2.1c-0.4-0.7-1.2-1.8-1.3-2.7c-5.8-2.9-12.2-4.6-18.8-4.7  V22.9z M85.2,34.4c5.7,0.3,10.9,2.6,14.9,6.2l6.3-6.3c-5.6-5.2-13.1-8.5-21.2-8.8V34.4z M85.2,45.8c0.9,0.1,1.7,0.3,2.5,0.5  c0.2-0.5,0.7-0.8,1.2-1.1c0.5-0.4,0.9-0.7,0.8,0.2c-0.1,0.7-0.3,1.1-0.7,1.4c0.9,0.4,1.7,0.9,2.5,1.4c0.2,0.1,0.3,0.3,0.5,0.4  l0.9-0.9c0,0,0-0.1,0-0.1c0-0.5,0.7-1.1,1.5-1.4l2.8-2.8c-0.1,0-0.1,0-0.2,0c-0.4,0-0.9,0.7-1.3,0.5c-0.4-0.2,1.2-1.7,2-1.4  c0.1,0,0.2,0.1,0.3,0.1l0.4-0.4c-3.5-3.2-8.1-5.2-13.1-5.5V45.8z M84.1,48.3c-0.1,0-0.1,0-0.2,0c-1,0-2.1,0.2-3,0.5  c-0.1,0.1-0.2,0.3-0.2,0.4c0.2,0.4,1-0.4,1.1,0.3c0.1,0.5-0.8,0.1-0.7,0.5c0.1,0.3,0.7,0.2,0.7,0.6c0,0.4-0.4,1.1-0.7,1.3  c-0.4,0.3-2.5,0.5-2.8,1c-0.2,0.4-0.4,0.8-0.7,1.2c-0.4,0.4-2.1,1.4-2.1,1.7c0,0.6,0.8-0.2,1.1-0.4c0.4-0.4,0.9-0.4,1.4-0.7  c0.8-0.4,1.1,1.1,0.2,1.1c-0.5,0-0.9,1.5-1.7,1.2c-0.2-0.1-0.8-0.4-0.9-0.1c-0.1,0.4,1.2,0.4,1.6,0.7c1.1,0.7-0.8,0.6-1.1,0.8  c-0.3,0.2-0.2,0.6,0.2,0.4c0.4-0.2,0.9-0.6,1.2,0.1c0.3,0.9-1.5,4.1-2,3.8c-0.3-0.2-0.6,0.1-0.8,0.2c0.4,0.7,0.8,1.4,1.3,2  c0.4-0.6,0.9-1.4,1.1-1.4c0.3,0,0.2-0.3,0.3-0.5c0.2-0.3,0.5,0,0.6-0.4c0-0.4,1-0.9,1.1-1.5c0.1-0.3-0.3-0.6-0.2-0.9  c0.2-0.3,0.3-0.4,0.5-0.4c0.2-0.1,0.7,0.4,0.8,0.2c0.1-0.2,0.8,0,1.4,0.3c0.2,0.2,0.7,0,1,0.4c0.4,0.6,0,0.6,0.1,0.7  c0.1,0.1,0.2-0.1,0.3,0c0.2,0.2-1,1-0.9,1.4c0.1,0.4-1.1,2.4-1.4,2.7c-0.5,0.4-1.2,0-1.5,0C79,65.7,79,66,78.5,65.9  c-0.4-0.1-0.8,0.1-1.3,0.3c1.8,1.6,4.1,2.5,6.7,2.5c0.6,0,1.1-0.1,1.6-0.1c0.3-0.4,0.5-0.9,0.5-1.5c0-0.3,0-0.7,0.1-0.9  c0.1-0.2,1-1.2,1.3-1.2c0.3,0,0.5,0.3,0.9,0.1c0.8-0.3,1.3,0,1.3,0.3c0,0.5-1,0.3-1,0.6c0,0.2,0.8,0.5,1,0.2  c0.5-0.5,0.4-1.2,0.3-1.3c-0.3-0.4-0.3-0.6,0.2-0.4c0.3,0.1,0.3-1,0.6-1.5c0.4-0.6-0.7-0.2-1.1-0.1c-0.4,0.1-0.8-0.8-0.8-1.2  c0-0.2,0.8,0.8,1.2,0.8c0.5,0,1-0.5,1-0.9c0-0.4-0.9-0.4-1-0.9c-0.1-0.3,0.7,0,0.7-0.3c-0.1-0.2,0.1-0.8-0.4-1  c-0.5-0.2-1-1.8-1.4-1.9c-0.4-0.1-0.6,0.4-0.9,0.6c-0.2,0.2-0.6-0.1-0.4-0.3c0.3-0.2,0.8-0.8,1-1.2c0.2-0.7,1.1,0,0.9-0.9  c-0.2-1-1-0.8-0.6-1.3c0.4-0.5,0.1-1.3-0.7-1.2c-0.4,0.1-0.8-0.6-0.8-1.1c0-0.3-0.9-0.3-0.9-0.6c0.1-0.7-0.9-0.7-1.5-0.7  c-0.6,0-1.8-0.9-1.9-1.1c-0.1-0.2-1,0.2-0.7-0.7c0.3-0.9,1.1,0.2,1.4-0.1C84.3,48.8,84.2,48.5,84.1,48.3 M82.7,2.5  C68.6,2.8,55.4,8.3,45.2,18l6.4,6.4c8.2-7.7,19.1-12.6,31.1-12.9V2.5 M43.5,19.8C33.7,29.9,28.3,43.1,28,57.2h8.9  c0.3-12,5.2-22.9,12.9-31.1L43.5,19.8"></path>
<g>
</g>
<g>
</g>
<g>
</g>
<g>
</g>
<g>
</g>
<g>
</g>
<g>
</g>
<g>
</g>
<g>
</g>
<g>
</g>
<g>
</g>
<g>
</g>
<g>
</g>
<g>
</g>
<g>
</g>
</svg>