<svg xmlns="http://www.w3.org/2000/svg" xmlns:xlink="http://www.w3.org/1999/xlink" x="0px" y="0px" viewBox="0 0 48 48" style="enable-background:new 0 0 48 48;" xml:space="preserve">
<style type="text/css">

	.st0{fill:#418FDE;}
	.st1{fill:#FF725F;}
	.st2{fill:#FFFFFF;}
	.st3{fill:#A0C7EE;}

</style>
<g id="Layer_1">
</g>
<g id="icon">
	<g>
		<path class="st0" d="M8.4,33.8L1.2,41c-1.6,1.6-1.6,4.2,0,5.8c1.6,1.6,4.2,1.6,5.8,0l7.2-7.2C11.9,38,10,36.1,8.4,33.8z"></path>
		<path class="st3" d="M22,20h-4c-0.5,0-1,0.5-1,1v4.9c1.3,2.4,3.4,4.4,6,5.5V21C23,20.5,22.6,20,22,20z"></path>
		<path class="st1" d="M38,14h-4c-0.5,0-1,0.5-1,1v16.5c2.6-1.1,4.7-3.1,6-5.5V15C39,14.5,38.6,14,38,14z"></path>
		<path class="st3" d="M30,17h-4c-0.5,0-1,0.5-1,1v14.1c1,0.2,2,0.4,3,0.4s2-0.1,3-0.4V18C31,17.5,30.6,17,30,17z"></path>
		<path class="st0" d="M28,0C17,0,8,9,8,20s9,20,20,20s20-9,20-20S39.1,0,28,0z M39,30.2c-1.6,1.8-3.7,3.1-6,4    c-0.7,0.2-1.3,0.4-2,0.6c-1,0.2-2,0.3-3,0.3s-2-0.1-3-0.3c-0.7-0.1-1.3-0.3-2-0.6c-2.3-0.8-4.4-2.2-6-4c-2.5-2.7-4-6.2-4-10.2    c0-8.3,6.7-15,15-15s15,6.7,15,15C43,23.9,41.5,27.5,39,30.2z"></path>
	</g>
</g>
</svg>