<svg xmlns="http://www.w3.org/2000/svg" xmlns:xlink="http://www.w3.org/1999/xlink" id="Layer_1" x="0px" y="0px" viewBox="0 0 48 48" style="enable-background:new 0 0 48 48;" xml:space="preserve">
<style type="text/css">
	.st0{fill:#418FDE;}
	.st2{fill:#FFFFFF;}
</style>
<g>
	<g>
		<path class="st0" d="M40.8,28.5L33,13H15L7.2,28.5C4.8,34,6.3,39.9,10,43.8c2.5,2.6,6,4.2,10,4.2h8c4,0,7.5-1.7,10-4.2    C41.7,39.9,43.2,34,40.8,28.5z"></path>
		<path class="st0" d="M15,11h8l-1.6-7.4c-0.2-0.9-1-1.6-2-1.6H14c-0.6,0-1.1,0.6-1,1.2L15,11z"></path>
		<path class="st0" d="M29,11L29,11h4l2-9.8C35.1,0.6,34.6,0,34,0h-3c-1.1,0-2,0.9-2,2c0-1.1-0.9-2-2-2h-3c-0.6,0-1.1,0.6-1,1.2    l2,9.8H29z"></path>
	</g>
	<path class="st2" d="M33.4,28.1L23.1,38.7c-0.4,0.4-0.9,0.6-1.4,0.6c0,0,0,0,0,0c-0.5,0-1.1-0.2-1.4-0.6l-5.7-6   c-0.8-0.8-0.7-2.1,0.1-2.8c0.8-0.8,2.1-0.7,2.8,0.1l4.2,4.5l8.9-9.2c0.8-0.8,2-0.8,2.8,0C34.2,26,34.2,27.3,33.4,28.1z"></path>
</g>
</svg>