<svg xmlns="http://www.w3.org/2000/svg" xmlns:xlink="http://www.w3.org/1999/xlink" id="Layer_1" x="0px" y="0px" viewBox="0 0 48 48" style="enable-background:new 0 0 48 48;" xml:space="preserve">
<style type="text/css">
	.st0{fill:#418FDE;}
	.st2{fill:#FFFFFF;}
	.st1{fill:#FF725F;}
</style>
<g id="final_icons">
</g>
<g>
	<path class="st0" d="M38,6h-5c0-1.1-0.9-2-2-2h-3c0-1.1-0.4-2.1-1.2-2.8C26.1,0.4,25.1,0,24,0c-2.2,0-4,1.8-4,4h-3   c-1.1,0-2,0.9-2,2h-5C8.9,6,8,7,8,8.1v37.7C8,47,8.9,48,10,48h28c1.1,0,2-1,2-2.2V8.1C40,7,39.1,6,38,6z M24,4c0.6,0,1,0.4,1,1   s-0.4,1-1,1s-1-0.4-1-1S23.4,4,24,4z"></path>
	<path class="st2" d="M36,44H12V10h3c0,1.1,0.9,2,2,2h14c1.1,0,2-0.9,2-2h3V44z"></path>
	<path class="st1" d="M18,37h-2c-0.6,0-1,0.4-1,1v1c0,0.6,0.4,1,1,1h2c0.6,0,1-0.4,1-1v-1C19,37.4,18.6,37,18,37z"></path>
	<path class="st1" d="M18,29h-2c-0.6,0-1,0.4-1,1v1c0,0.6,0.4,1,1,1h2c0.6,0,1-0.4,1-1v-1C19,29.4,18.6,29,18,29z"></path>
	<path class="st0" d="M31.5,37h-8c-0.8,0-1.5,0.7-1.5,1.5s0.7,1.5,1.5,1.5h8c0.8,0,1.5-0.7,1.5-1.5S32.3,37,31.5,37z"></path>
	<path class="st0" d="M31.5,29h-8c-0.8,0-1.5,0.7-1.5,1.5s0.7,1.5,1.5,1.5h8c0.8,0,1.5-0.7,1.5-1.5S32.3,29,31.5,29z"></path>
	<path class="st1" d="M18,21h-2c-0.6,0-1,0.4-1,1v1c0,0.6,0.4,1,1,1h2c0.6,0,1-0.4,1-1v-1C19,21.4,18.6,21,18,21z"></path>
	<path class="st0" d="M31.5,21h-8c-0.8,0-1.5,0.7-1.5,1.5s0.7,1.5,1.5,1.5h8c0.8,0,1.5-0.7,1.5-1.5S32.3,21,31.5,21z"></path>
</g>
</svg>